<svg width="137" height="76" viewBox="0 0 137 76" fill="none" xmlns="http://www.w3.org/2000/svg">
<rect width="133" height="38" rx="7" fill="white"/>
<path d="M16.99 29.42C14.43 29.42 12.4 28.7 10.9 27.26C9.4 25.8 8.65 23.7 8.65 20.96V16.04C8.65 13.3 9.4 11.21 10.9 9.77C12.4 8.31 14.43 7.58 16.99 7.58C19.51 7.58 21.45 8.28 22.81 9.68C24.19 11.08 24.88 12.99 24.88 15.41V15.59H21.67V15.32C21.67 13.9 21.28 12.74 20.5 11.84C19.74 10.94 18.57 10.49 16.99 10.49C15.39 10.49 14.14 10.98 13.24 11.96C12.34 12.92 11.89 14.26 11.89 15.98V21.02C11.89 22.72 12.34 24.06 13.24 25.04C14.14 26.02 15.39 26.51 16.99 26.51C18.57 26.51 19.74 26.06 20.5 25.16C21.28 24.24 21.67 23.08 21.67 21.68V21.17H24.88V21.59C24.88 24.01 24.19 25.92 22.81 27.32C21.45 28.72 19.51 29.42 16.99 29.42ZM35.4873 29.42C34.0073 29.42 32.6873 29.12 31.5273 28.52C30.3873 27.9 29.4873 27.02 28.8273 25.88C28.1673 24.74 27.8373 23.39 27.8373 21.83V21.38C27.8373 19.82 28.1673 18.48 28.8273 17.36C29.4873 16.22 30.3873 15.34 31.5273 14.72C32.6873 14.1 34.0073 13.79 35.4873 13.79C36.9673 13.79 38.2873 14.1 39.4473 14.72C40.6073 15.34 41.5173 16.22 42.1773 17.36C42.8373 18.48 43.1673 19.82 43.1673 21.38V21.83C43.1673 23.39 42.8373 24.74 42.1773 25.88C41.5173 27.02 40.6073 27.9 39.4473 28.52C38.2873 29.12 36.9673 29.42 35.4873 29.42ZM35.4873 26.66C36.8473 26.66 37.9473 26.23 38.7873 25.37C39.6473 24.49 40.0773 23.28 40.0773 21.74V21.47C40.0773 19.93 39.6573 18.73 38.8173 17.87C37.9773 16.99 36.8673 16.55 35.4873 16.55C34.1473 16.55 33.0473 16.99 32.1873 17.87C31.3473 18.73 30.9273 19.93 30.9273 21.47V21.74C30.9273 23.28 31.3473 24.49 32.1873 25.37C33.0473 26.23 34.1473 26.66 35.4873 26.66ZM47.0144 29V14.21H50.0444V16.43H50.5244C50.8044 15.83 51.3044 15.27 52.0244 14.75C52.7444 14.23 53.8144 13.97 55.2344 13.97C56.3544 13.97 57.3444 14.22 58.2044 14.72C59.0844 15.22 59.7744 15.93 60.2744 16.85C60.7744 17.75 61.0244 18.84 61.0244 20.12V29H57.9344V20.36C57.9344 19.08 57.6144 18.14 56.9744 17.54C56.3344 16.92 55.4544 16.61 54.3344 16.61C53.0544 16.61 52.0244 17.03 51.2444 17.87C50.4844 18.71 50.1044 19.93 50.1044 21.53V29H47.0144ZM70.6113 29C69.7113 29 68.9913 28.73 68.4513 28.19C67.9313 27.65 67.6713 26.93 67.6713 26.03V16.82H63.5913V14.21H67.6713V9.32H70.7613V14.21H75.1713V16.82H70.7613V25.49C70.7613 26.09 71.0413 26.39 71.6012 26.39H74.6913V29H70.6113ZM85.0541 29.42C83.5541 29.42 82.2441 29.11 81.1241 28.49C80.0041 27.85 79.1241 26.96 78.4841 25.82C77.8641 24.66 77.5541 23.32 77.5541 21.8V21.44C77.5541 19.9 77.8641 18.56 78.4841 17.42C79.1041 16.26 79.9641 15.37 81.0641 14.75C82.1841 14.11 83.4741 13.79 84.9341 13.79C86.3541 13.79 87.5941 14.11 88.6541 14.75C89.7341 15.37 90.5741 16.24 91.1741 17.36C91.7741 18.48 92.0741 19.79 92.0741 21.29V22.46H80.7041C80.7441 23.76 81.1741 24.8 81.9941 25.58C82.8341 26.34 83.8741 26.72 85.1141 26.72C86.2741 26.72 87.1441 26.46 87.7241 25.94C88.3241 25.42 88.7841 24.82 89.1041 24.14L91.6541 25.46C91.3741 26.02 90.9641 26.61 90.4241 27.23C89.9041 27.85 89.2141 28.37 88.3541 28.79C87.4941 29.21 86.3941 29.42 85.0541 29.42ZM80.7341 20.09H88.9241C88.8441 18.97 88.4441 18.1 87.7241 17.48C87.0041 16.84 86.0641 16.52 84.9041 16.52C83.7441 16.52 82.7941 16.84 82.0541 17.48C81.3341 18.1 80.8941 18.97 80.7341 20.09ZM95.7937 29V14.21H98.8237V16.43H99.3037C99.5837 15.83 100.084 15.27 100.804 14.75C101.524 14.23 102.594 13.97 104.014 13.97C105.134 13.97 106.124 14.22 106.984 14.72C107.864 15.22 108.554 15.93 109.054 16.85C109.554 17.75 109.804 18.84 109.804 20.12V29H106.714V20.36C106.714 19.08 106.394 18.14 105.754 17.54C105.114 16.92 104.234 16.61 103.114 16.61C101.834 16.61 100.804 17.03 100.024 17.87C99.2637 18.71 98.8837 19.93 98.8837 21.53V29H95.7937ZM119.391 29C118.491 29 117.771 28.73 117.231 28.19C116.711 27.65 116.451 26.93 116.451 26.03V16.82H112.371V14.21H116.451V9.32H119.541V14.21H123.951V16.82H119.541V25.49C119.541 26.09 119.821 26.39 120.381 26.39H123.471V29H119.391Z" fill="black"/>
<rect y="38" width="137" height="38" rx="7" fill="white"/>
<path d="M16.99 67.42C14.43 67.42 12.4 66.7 10.9 65.26C9.4 63.8 8.65 61.7 8.65 58.96V54.04C8.65 51.3 9.4 49.21 10.9 47.77C12.4 46.31 14.43 45.58 16.99 45.58C19.51 45.58 21.45 46.28 22.81 47.68C24.19 49.08 24.88 50.99 24.88 53.41V53.59H21.67V53.32C21.67 51.9 21.28 50.74 20.5 49.84C19.74 48.94 18.57 48.49 16.99 48.49C15.39 48.49 14.14 48.98 13.24 49.96C12.34 50.92 11.89 52.26 11.89 53.98V59.02C11.89 60.72 12.34 62.06 13.24 63.04C14.14 64.02 15.39 64.51 16.99 64.51C18.57 64.51 19.74 64.06 20.5 63.16C21.28 62.24 21.67 61.08 21.67 59.68V59.17H24.88V59.59C24.88 62.01 24.19 63.92 22.81 65.32C21.45 66.72 19.51 67.42 16.99 67.42ZM28.5573 67V52.21H31.5873V53.95H32.0673C32.3073 53.33 32.6873 52.88 33.2073 52.6C33.7473 52.3 34.4073 52.15 35.1873 52.15H36.9573V54.94H35.0673C34.0673 54.94 33.2473 55.22 32.6073 55.78C31.9673 56.32 31.6473 57.16 31.6473 58.3V67H28.5573ZM46.4116 67.42C44.9116 67.42 43.6016 67.11 42.4816 66.49C41.3616 65.85 40.4816 64.96 39.8416 63.82C39.2216 62.66 38.9116 61.32 38.9116 59.8V59.44C38.9116 57.9 39.2216 56.56 39.8416 55.42C40.4616 54.26 41.3216 53.37 42.4216 52.75C43.5416 52.11 44.8316 51.79 46.2916 51.79C47.7116 51.79 48.9516 52.11 50.0116 52.75C51.0916 53.37 51.9316 54.24 52.5316 55.36C53.1316 56.48 53.4316 57.79 53.4316 59.29V60.46H42.0616C42.1016 61.76 42.5316 62.8 43.3516 63.58C44.1916 64.34 45.2316 64.72 46.4716 64.72C47.6316 64.72 48.5016 64.46 49.0816 63.94C49.6816 63.42 50.1416 62.82 50.4616 62.14L53.0116 63.46C52.7316 64.02 52.3216 64.61 51.7816 65.23C51.2616 65.85 50.5716 66.37 49.7116 66.79C48.8516 67.21 47.7516 67.42 46.4116 67.42ZM42.0916 58.09H50.2816C50.2016 56.97 49.8016 56.1 49.0816 55.48C48.3616 54.84 47.4216 54.52 46.2616 54.52C45.1016 54.52 44.1516 54.84 43.4116 55.48C42.6916 56.1 42.2516 56.97 42.0916 58.09ZM61.7411 67.42C60.6811 67.42 59.7311 67.24 58.8911 66.88C58.0711 66.52 57.4111 65.99 56.9111 65.29C56.4311 64.59 56.1911 63.74 56.1911 62.74C56.1911 61.72 56.4311 60.88 56.9111 60.22C57.4111 59.54 58.0811 59.03 58.9211 58.69C59.7811 58.35 60.7511 58.18 61.8311 58.18H66.3311V57.22C66.3311 56.36 66.0711 55.67 65.5511 55.15C65.0311 54.63 64.2311 54.37 63.1511 54.37C62.0911 54.37 61.2811 54.62 60.7211 55.12C60.1611 55.62 59.7911 56.27 59.6111 57.07L56.7311 56.14C56.9711 55.34 57.3511 54.62 57.8711 53.98C58.4111 53.32 59.1211 52.79 60.0011 52.39C60.8811 51.99 61.9411 51.79 63.1811 51.79C65.1011 51.79 66.6111 52.28 67.7111 53.26C68.8111 54.24 69.3611 55.63 69.3611 57.43V63.52C69.3611 64.12 69.6411 64.42 70.2011 64.42H71.4611V67H69.1511C68.4511 67 67.8811 66.82 67.4411 66.46C67.0011 66.1 66.7811 65.61 66.7811 64.99V64.9H66.3311C66.1711 65.2 65.9311 65.55 65.6111 65.95C65.2911 66.35 64.8211 66.7 64.2011 67C63.5811 67.28 62.7611 67.42 61.7411 67.42ZM62.1911 64.87C63.4311 64.87 64.4311 64.52 65.1911 63.82C65.9511 63.1 66.3311 62.12 66.3311 60.88V60.58H62.0111C61.1911 60.58 60.5311 60.76 60.0311 61.12C59.5311 61.46 59.2811 61.97 59.2811 62.65C59.2811 63.33 59.5411 63.87 60.0611 64.27C60.5811 64.67 61.2911 64.87 62.1911 64.87ZM78.9902 67C78.0902 67 77.3702 66.73 76.8302 66.19C76.3102 65.65 76.0502 64.93 76.0502 64.03V54.82H71.9702V52.21H76.0502V47.32H79.1402V52.21H83.5502V54.82H79.1402V63.49C79.1402 64.09 79.4202 64.39 79.9802 64.39H83.0702V67H78.9902ZM87.1804 67V52.21H90.2704V67H87.1804ZM88.7404 50.2C88.1404 50.2 87.6304 50.01 87.2104 49.63C86.8104 49.23 86.6104 48.72 86.6104 48.1C86.6104 47.48 86.8104 46.98 87.2104 46.6C87.6304 46.2 88.1404 46 88.7404 46C89.3604 46 89.8704 46.2 90.2704 46.6C90.6704 46.98 90.8704 47.48 90.8704 48.1C90.8704 48.72 90.6704 49.23 90.2704 49.63C89.8704 50.01 89.3604 50.2 88.7404 50.2ZM101.786 67.42C100.306 67.42 98.9862 67.12 97.8262 66.52C96.6862 65.9 95.7862 65.02 95.1262 63.88C94.4662 62.74 94.1362 61.39 94.1362 59.83V59.38C94.1362 57.82 94.4662 56.48 95.1262 55.36C95.7862 54.22 96.6862 53.34 97.8262 52.72C98.9862 52.1 100.306 51.79 101.786 51.79C103.266 51.79 104.586 52.1 105.746 52.72C106.906 53.34 107.816 54.22 108.476 55.36C109.136 56.48 109.466 57.82 109.466 59.38V59.83C109.466 61.39 109.136 62.74 108.476 63.88C107.816 65.02 106.906 65.9 105.746 66.52C104.586 67.12 103.266 67.42 101.786 67.42ZM101.786 64.66C103.146 64.66 104.246 64.23 105.086 63.37C105.946 62.49 106.376 61.28 106.376 59.74V59.47C106.376 57.93 105.956 56.73 105.116 55.87C104.276 54.99 103.166 54.55 101.786 54.55C100.446 54.55 99.3462 54.99 98.4862 55.87C97.6462 56.73 97.2262 57.93 97.2262 59.47V59.74C97.2262 61.28 97.6462 62.49 98.4862 63.37C99.3462 64.23 100.446 64.66 101.786 64.66ZM113.313 67V52.21H116.343V54.43H116.823C117.103 53.83 117.603 53.27 118.323 52.75C119.043 52.23 120.113 51.97 121.533 51.97C122.653 51.97 123.643 52.22 124.503 52.72C125.383 53.22 126.073 53.93 126.573 54.85C127.073 55.75 127.323 56.84 127.323 58.12V67H124.233V58.36C124.233 57.08 123.913 56.14 123.273 55.54C122.633 54.92 121.753 54.61 120.633 54.61C119.353 54.61 118.323 55.03 117.543 55.87C116.783 56.71 116.403 57.93 116.403 59.53V67H113.313Z" fill="black"/>
</svg>
