<svg width="209" height="76" viewBox="0 0 209 76" fill="none" xmlns="http://www.w3.org/2000/svg">
<rect width="209" height="38" rx="7" fill="white"/>
<path d="M9.19 29V8H17.53C18.81 8 19.95 8.26 20.95 8.78C21.97 9.28 22.76 10 23.32 10.94C23.9 11.86 24.19 12.97 24.19 14.27V14.66C24.19 15.96 23.89 17.08 23.29 18.02C22.71 18.96 21.92 19.68 20.92 20.18C19.92 20.68 18.79 20.93 17.53 20.93H12.43V29H9.19ZM12.43 17.99H17.2C18.34 17.99 19.25 17.69 19.93 17.09C20.61 16.49 20.95 15.67 20.95 14.63V14.33C20.95 13.27 20.61 12.44 19.93 11.84C19.25 11.24 18.34 10.94 17.2 10.94H12.43V17.99ZM31.6239 29.42C30.5639 29.42 29.6139 29.24 28.7739 28.88C27.9539 28.52 27.2939 27.99 26.7939 27.29C26.3139 26.59 26.0739 25.74 26.0739 24.74C26.0739 23.72 26.3139 22.88 26.7939 22.22C27.2939 21.54 27.9639 21.03 28.8039 20.69C29.6639 20.35 30.6339 20.18 31.7139 20.18H36.2139V19.22C36.2139 18.36 35.9539 17.67 35.4339 17.15C34.9139 16.63 34.1139 16.37 33.0339 16.37C31.9739 16.37 31.1639 16.62 30.6039 17.12C30.0439 17.62 29.6739 18.27 29.4939 19.07L26.6139 18.14C26.8539 17.34 27.2339 16.62 27.7539 15.98C28.2939 15.32 29.0039 14.79 29.8839 14.39C30.7639 13.99 31.8239 13.79 33.0639 13.79C34.9839 13.79 36.4939 14.28 37.5939 15.26C38.6939 16.24 39.2439 17.63 39.2439 19.43V25.52C39.2439 26.12 39.5239 26.42 40.0839 26.42H41.3439V29H39.0339C38.3339 29 37.7639 28.82 37.3239 28.46C36.8839 28.1 36.6639 27.61 36.6639 26.99V26.9H36.2139C36.0539 27.2 35.8139 27.55 35.4939 27.95C35.1739 28.35 34.7039 28.7 34.0839 29C33.4639 29.28 32.6439 29.42 31.6239 29.42ZM32.0739 26.87C33.3139 26.87 34.3139 26.52 35.0739 25.82C35.8339 25.1 36.2139 24.12 36.2139 22.88V22.58H31.8939C31.0739 22.58 30.4139 22.76 29.9139 23.12C29.4139 23.46 29.1639 23.97 29.1639 24.65C29.1639 25.33 29.4239 25.87 29.9439 26.27C30.4639 26.67 31.1739 26.87 32.0739 26.87ZM45.6775 35V32.3H53.9275C54.4875 32.3 54.7675 32 54.7675 31.4V26.84H54.2875C54.1075 27.24 53.8275 27.63 53.4475 28.01C53.0875 28.37 52.5975 28.67 51.9775 28.91C51.3575 29.15 50.5775 29.27 49.6375 29.27C48.5175 29.27 47.5175 29.02 46.6375 28.52C45.7575 28.02 45.0675 27.31 44.5675 26.39C44.0675 25.47 43.8175 24.38 43.8175 23.12V14.21H46.9075V22.88C46.9075 24.16 47.2275 25.11 47.8675 25.73C48.5075 26.33 49.3975 26.63 50.5375 26.63C51.7975 26.63 52.8075 26.21 53.5675 25.37C54.3475 24.53 54.7375 23.31 54.7375 21.71V14.21H57.8275V32.03C57.8275 32.93 57.5575 33.65 57.0175 34.19C56.4975 34.73 55.7775 35 54.8575 35H45.6775ZM62.3352 22.73V19.91H71.2152V22.73H62.3352ZM75.696 35V14.21H78.726V16.34H79.206C79.586 15.68 80.156 15.09 80.916 14.57C81.696 14.05 82.806 13.79 84.246 13.79C85.486 13.79 86.616 14.09 87.636 14.69C88.676 15.29 89.506 16.16 90.126 17.3C90.766 18.42 91.086 19.78 91.086 21.38V21.83C91.086 23.43 90.776 24.8 90.156 25.94C89.536 27.06 88.706 27.92 87.666 28.52C86.626 29.12 85.486 29.42 84.246 29.42C83.286 29.42 82.476 29.3 81.816 29.06C81.156 28.82 80.626 28.52 80.226 28.16C79.826 27.78 79.506 27.39 79.266 26.99H78.786V35H75.696ZM83.346 26.72C84.706 26.72 85.816 26.29 86.676 25.43C87.536 24.57 87.966 23.34 87.966 21.74V21.47C87.966 19.89 87.526 18.67 86.646 17.81C85.786 16.95 84.686 16.52 83.346 16.52C82.026 16.52 80.926 16.95 80.046 17.81C79.186 18.67 78.756 19.89 78.756 21.47V21.74C78.756 23.34 79.186 24.57 80.046 25.43C80.926 26.29 82.026 26.72 83.346 26.72ZM101.695 29.42C100.195 29.42 98.8848 29.11 97.7648 28.49C96.6448 27.85 95.7648 26.96 95.1248 25.82C94.5048 24.66 94.1948 23.32 94.1948 21.8V21.44C94.1948 19.9 94.5048 18.56 95.1248 17.42C95.7448 16.26 96.6048 15.37 97.7048 14.75C98.8248 14.11 100.115 13.79 101.575 13.79C102.995 13.79 104.235 14.11 105.295 14.75C106.375 15.37 107.215 16.24 107.815 17.36C108.415 18.48 108.715 19.79 108.715 21.29V22.46H97.3448C97.3848 23.76 97.8148 24.8 98.6348 25.58C99.4748 26.34 100.515 26.72 101.755 26.72C102.915 26.72 103.785 26.46 104.365 25.94C104.965 25.42 105.425 24.82 105.745 24.14L108.295 25.46C108.015 26.02 107.605 26.61 107.065 27.23C106.545 27.85 105.855 28.37 104.995 28.79C104.135 29.21 103.035 29.42 101.695 29.42ZM97.3748 20.09H105.565C105.485 18.97 105.085 18.1 104.365 17.48C103.645 16.84 102.705 16.52 101.545 16.52C100.385 16.52 99.4348 16.84 98.6948 17.48C97.9748 18.1 97.5348 18.97 97.3748 20.09ZM112.434 29V14.21H115.464V15.95H115.944C116.184 15.33 116.564 14.88 117.084 14.6C117.624 14.3 118.284 14.15 119.064 14.15H120.834V16.94H118.944C117.944 16.94 117.124 17.22 116.484 17.78C115.844 18.32 115.524 19.16 115.524 20.3V29H112.434ZM123.478 22.73V19.91H132.358V22.73H123.478ZM143.709 29.42C142.289 29.42 140.999 29.12 139.839 28.52C138.699 27.92 137.789 27.05 137.109 25.91C136.449 24.77 136.119 23.4 136.119 21.8V21.41C136.119 19.81 136.449 18.45 137.109 17.33C137.789 16.19 138.699 15.32 139.839 14.72C140.999 14.1 142.289 13.79 143.709 13.79C145.129 13.79 146.339 14.05 147.339 14.57C148.339 15.09 149.139 15.78 149.739 16.64C150.359 17.5 150.759 18.45 150.939 19.49L147.939 20.12C147.839 19.46 147.629 18.86 147.309 18.32C146.989 17.78 146.539 17.35 145.959 17.03C145.379 16.71 144.649 16.55 143.769 16.55C142.909 16.55 142.129 16.75 141.429 17.15C140.749 17.53 140.209 18.09 139.809 18.83C139.409 19.55 139.209 20.43 139.209 21.47V21.74C139.209 22.78 139.409 23.67 139.809 24.41C140.209 25.15 140.749 25.71 141.429 26.09C142.129 26.47 142.909 26.66 143.769 26.66C145.069 26.66 146.059 26.33 146.739 25.67C147.419 24.99 147.849 24.13 148.029 23.09L151.029 23.78C150.789 24.8 150.359 25.74 149.739 26.6C149.139 27.46 148.339 28.15 147.339 28.67C146.339 29.17 145.129 29.42 143.709 29.42ZM154.593 29V8H157.683V29H154.593ZM162.268 29V14.21H165.358V29H162.268ZM163.828 12.2C163.228 12.2 162.718 12.01 162.298 11.63C161.898 11.23 161.698 10.72 161.698 10.1C161.698 9.48 161.898 8.98 162.298 8.6C162.718 8.2 163.228 8 163.828 8C164.448 8 164.958 8.2 165.358 8.6C165.758 8.98 165.958 9.48 165.958 10.1C165.958 10.72 165.758 11.23 165.358 11.63C164.958 12.01 164.448 12.2 163.828 12.2ZM176.814 29.42C175.394 29.42 174.104 29.12 172.944 28.52C171.804 27.92 170.894 27.05 170.214 25.91C169.554 24.77 169.224 23.4 169.224 21.8V21.41C169.224 19.81 169.554 18.45 170.214 17.33C170.894 16.19 171.804 15.32 172.944 14.72C174.104 14.1 175.394 13.79 176.814 13.79C178.234 13.79 179.444 14.05 180.444 14.57C181.444 15.09 182.244 15.78 182.844 16.64C183.464 17.5 183.864 18.45 184.044 19.49L181.044 20.12C180.944 19.46 180.734 18.86 180.414 18.32C180.094 17.78 179.644 17.35 179.064 17.03C178.484 16.71 177.754 16.55 176.874 16.55C176.014 16.55 175.234 16.75 174.534 17.15C173.854 17.53 173.314 18.09 172.914 18.83C172.514 19.55 172.314 20.43 172.314 21.47V21.74C172.314 22.78 172.514 23.67 172.914 24.41C173.314 25.15 173.854 25.71 174.534 26.09C175.234 26.47 176.014 26.66 176.874 26.66C178.174 26.66 179.164 26.33 179.844 25.67C180.524 24.99 180.954 24.13 181.134 23.09L184.134 23.78C183.894 24.8 183.464 25.74 182.844 26.6C182.244 27.46 181.444 28.15 180.444 28.67C179.444 29.17 178.234 29.42 176.814 29.42ZM187.698 29V8H190.788V19.97H191.268L197.088 14.21H201.198L193.728 21.38L201.438 29H197.358L191.268 22.85H190.788V29H187.698Z" fill="black"/>
<rect y="38" width="178" height="38" rx="7" fill="white"/>
<path d="M13.87 67.42C12.81 67.42 11.86 67.24 11.02 66.88C10.2 66.52 9.54 65.99 9.04 65.29C8.56 64.59 8.32 63.74 8.32 62.74C8.32 61.72 8.56 60.88 9.04 60.22C9.54 59.54 10.21 59.03 11.05 58.69C11.91 58.35 12.88 58.18 13.96 58.18H18.46V57.22C18.46 56.36 18.2 55.67 17.68 55.15C17.16 54.63 16.36 54.37 15.28 54.37C14.22 54.37 13.41 54.62 12.85 55.12C12.29 55.62 11.92 56.27 11.74 57.07L8.86 56.14C9.1 55.34 9.48 54.62 10 53.98C10.54 53.32 11.25 52.79 12.13 52.39C13.01 51.99 14.07 51.79 15.31 51.79C17.23 51.79 18.74 52.28 19.84 53.26C20.94 54.24 21.49 55.63 21.49 57.43V63.52C21.49 64.12 21.77 64.42 22.33 64.42H23.59V67H21.28C20.58 67 20.01 66.82 19.57 66.46C19.13 66.1 18.91 65.61 18.91 64.99V64.9H18.46C18.3 65.2 18.06 65.55 17.74 65.95C17.42 66.35 16.95 66.7 16.33 67C15.71 67.28 14.89 67.42 13.87 67.42ZM14.32 64.87C15.56 64.87 16.56 64.52 17.32 63.82C18.08 63.1 18.46 62.12 18.46 60.88V60.58H14.14C13.32 60.58 12.66 60.76 12.16 61.12C11.66 61.46 11.41 61.97 11.41 62.65C11.41 63.33 11.67 63.87 12.19 64.27C12.71 64.67 13.42 64.87 14.32 64.87ZM32.3629 67.42C31.1429 67.42 30.0129 67.12 28.9729 66.52C27.9329 65.92 27.0929 65.06 26.4529 63.94C25.8329 62.8 25.5229 61.43 25.5229 59.83V59.38C25.5229 57.8 25.8329 56.44 26.4529 55.3C27.0729 54.16 27.9029 53.29 28.9429 52.69C29.9829 52.09 31.1229 51.79 32.3629 51.79C33.3229 51.79 34.1229 51.91 34.7629 52.15C35.4229 52.39 35.9629 52.7 36.3829 53.08C36.8029 53.44 37.1229 53.82 37.3429 54.22H37.8229V46H40.9129V67H37.8829V64.9H37.4029C37.0229 65.54 36.4429 66.12 35.6629 66.64C34.9029 67.16 33.8029 67.42 32.3629 67.42ZM33.2329 64.72C34.5729 64.72 35.6729 64.29 36.5329 63.43C37.4129 62.57 37.8529 61.34 37.8529 59.74V59.47C37.8529 57.89 37.4229 56.67 36.5629 55.81C35.7029 54.95 34.5929 54.52 33.2329 54.52C31.9129 54.52 30.8129 54.95 29.9329 55.81C29.0729 56.67 28.6429 57.89 28.6429 59.47V59.74C28.6429 61.34 29.0729 62.57 29.9329 63.43C30.8129 64.29 31.9129 64.72 33.2329 64.72ZM48.8816 67L43.9016 52.21H47.1716L51.1016 64.72H51.5816L55.5116 52.21H58.7816L53.8016 67H48.8816ZM68.062 67.42C66.562 67.42 65.252 67.11 64.132 66.49C63.012 65.85 62.132 64.96 61.492 63.82C60.872 62.66 60.562 61.32 60.562 59.8V59.44C60.562 57.9 60.872 56.56 61.492 55.42C62.112 54.26 62.972 53.37 64.072 52.75C65.192 52.11 66.482 51.79 67.942 51.79C69.362 51.79 70.602 52.11 71.662 52.75C72.742 53.37 73.582 54.24 74.182 55.36C74.782 56.48 75.082 57.79 75.082 59.29V60.46H63.712C63.752 61.76 64.182 62.8 65.002 63.58C65.842 64.34 66.882 64.72 68.122 64.72C69.282 64.72 70.152 64.46 70.732 63.94C71.332 63.42 71.792 62.82 72.112 62.14L74.662 63.46C74.382 64.02 73.972 64.61 73.432 65.23C72.912 65.85 72.222 66.37 71.362 66.79C70.502 67.21 69.402 67.42 68.062 67.42ZM63.742 58.09H71.932C71.852 56.97 71.452 56.1 70.732 55.48C70.012 54.84 69.072 54.52 67.912 54.52C66.752 54.52 65.802 54.84 65.062 55.48C64.342 56.1 63.902 56.97 63.742 58.09ZM78.8015 67V52.21H81.8315V53.95H82.3115C82.5515 53.33 82.9315 52.88 83.4515 52.6C83.9915 52.3 84.6515 52.15 85.4315 52.15H87.2015V54.94H85.3115C84.3115 54.94 83.4915 55.22 82.8515 55.78C82.2115 56.32 81.8915 57.16 81.8915 58.3V67H78.8015ZM95.953 67C95.053 67 94.333 66.73 93.793 66.19C93.273 65.65 93.013 64.93 93.013 64.03V54.82H88.933V52.21H93.013V47.32H96.103V52.21H100.513V54.82H96.103V63.49C96.103 64.09 96.383 64.39 96.943 64.39H100.033V67H95.953ZM104.143 67V52.21H107.233V67H104.143ZM105.703 50.2C105.103 50.2 104.593 50.01 104.173 49.63C103.773 49.23 103.573 48.72 103.573 48.1C103.573 47.48 103.773 46.98 104.173 46.6C104.593 46.2 105.103 46 105.703 46C106.323 46 106.833 46.2 107.233 46.6C107.633 46.98 107.833 47.48 107.833 48.1C107.833 48.72 107.633 49.23 107.233 49.63C106.833 50.01 106.323 50.2 105.703 50.2ZM117.879 67.42C115.999 67.42 114.439 67 113.199 66.16C111.959 65.32 111.199 64.05 110.919 62.35L113.799 61.66C113.959 62.48 114.229 63.13 114.609 63.61C114.989 64.09 115.459 64.43 116.019 64.63C116.599 64.83 117.219 64.93 117.879 64.93C118.859 64.93 119.609 64.74 120.129 64.36C120.669 63.98 120.939 63.49 120.939 62.89C120.939 62.29 120.689 61.85 120.189 61.57C119.689 61.29 118.949 61.06 117.969 60.88L116.949 60.7C115.949 60.52 115.039 60.26 114.219 59.92C113.399 59.58 112.749 59.11 112.269 58.51C111.789 57.91 111.549 57.14 111.549 56.2C111.549 54.8 112.069 53.72 113.109 52.96C114.149 52.18 115.529 51.79 117.249 51.79C118.909 51.79 120.269 52.17 121.329 52.93C122.409 53.67 123.109 54.68 123.429 55.96L120.549 56.77C120.369 55.87 119.989 55.24 119.409 54.88C118.829 54.5 118.109 54.31 117.249 54.31C116.409 54.31 115.749 54.47 115.269 54.79C114.789 55.09 114.549 55.52 114.549 56.08C114.549 56.68 114.779 57.12 115.239 57.4C115.719 57.68 116.359 57.89 117.159 58.03L118.209 58.21C119.269 58.39 120.239 58.64 121.119 58.96C121.999 59.28 122.689 59.74 123.189 60.34C123.709 60.94 123.969 61.74 123.969 62.74C123.969 64.22 123.419 65.37 122.319 66.19C121.219 67.01 119.739 67.42 117.879 67.42ZM127.581 67V52.21H130.671V67H127.581ZM129.141 50.2C128.541 50.2 128.031 50.01 127.611 49.63C127.211 49.23 127.011 48.72 127.011 48.1C127.011 47.48 127.211 46.98 127.611 46.6C128.031 46.2 128.541 46 129.141 46C129.761 46 130.271 46.2 130.671 46.6C131.071 46.98 131.271 47.48 131.271 48.1C131.271 48.72 131.071 49.23 130.671 49.63C130.271 50.01 129.761 50.2 129.141 50.2ZM135.257 67V52.21H138.287V54.43H138.767C139.047 53.83 139.547 53.27 140.267 52.75C140.987 52.23 142.057 51.97 143.477 51.97C144.597 51.97 145.587 52.22 146.447 52.72C147.327 53.22 148.017 53.93 148.517 54.85C149.017 55.75 149.267 56.84 149.267 58.12V67H146.177V58.36C146.177 57.08 145.857 56.14 145.217 55.54C144.577 54.92 143.697 54.61 142.577 54.61C141.297 54.61 140.267 55.03 139.487 55.87C138.727 56.71 138.347 57.93 138.347 59.53V67H135.257ZM152.994 59.68V59.23C152.994 57.67 153.304 56.34 153.924 55.24C154.564 54.14 155.404 53.29 156.444 52.69C157.484 52.09 158.624 51.79 159.864 51.79C161.304 51.79 162.404 52.06 163.164 52.6C163.944 53.14 164.514 53.72 164.874 54.34H165.354V52.21H168.354V70.03C168.354 70.93 168.084 71.65 167.544 72.19C167.024 72.73 166.304 73 165.384 73H155.424V70.3H164.424C165.004 70.3 165.294 70 165.294 69.4V64.69H164.814C164.594 65.05 164.284 65.42 163.884 65.8C163.484 66.18 162.954 66.49 162.294 66.73C161.654 66.97 160.844 67.09 159.864 67.09C158.624 67.09 157.474 66.8 156.414 66.22C155.374 65.62 154.544 64.77 153.924 63.67C153.304 62.55 152.994 61.22 152.994 59.68ZM160.704 64.39C162.044 64.39 163.144 63.97 164.004 63.13C164.884 62.27 165.324 61.09 165.324 59.59V59.32C165.324 57.78 164.894 56.6 164.034 55.78C163.174 54.94 162.064 54.52 160.704 54.52C159.384 54.52 158.284 54.94 157.404 55.78C156.544 56.6 156.114 57.78 156.114 59.32V59.59C156.114 61.09 156.544 62.27 157.404 63.13C158.284 63.97 159.384 64.39 160.704 64.39Z" fill="black"/>
</svg>
